<?xml version="1.0" encoding="UTF-8"?>
<svg version="1.1" xmlns="http://www.w3.org/2000/svg" width="553" height="451">
<path d="M0 0 C1.36164645 0.80134688 2.72365048 1.60208633 4.0859375 2.40234375 C6.30440146 3.70685607 8.52185504 5.01294124 10.73632812 6.32421875 C14.66221061 8.64548854 18.60413164 10.90803471 22.625 13.0625 C27.55150809 15.7078045 32.32169922 18.57555137 37.10205078 21.47290039 C41.68595023 24.23996121 46.3221334 26.89536934 51 29.5 C56.97513935 32.82695062 62.8548402 36.2846534 68.70043945 39.83374023 C72.31204459 42.01720036 75.95720551 44.08512326 79.6875 46.0625 C89.70355566 51.50276832 98.95981714 56.99816779 105 67 C105 67.99 105 68.98 105 70 C105.66 70 106.32 70 107 70 C107.65601744 71.51646821 108.2992664 73.03846175 108.9375 74.5625 C109.29714844 75.40941406 109.65679687 76.25632812 110.02734375 77.12890625 C112.27426828 83.76139431 112.26815161 90.68956793 112.375 97.625 C112.41238281 98.553125 112.44976562 99.48125 112.48828125 100.4375 C112.54823323 105.08710949 112.52845071 107.28313732 109.69921875 111.12109375 C106.19959512 113.55715593 104.18491726 113.53262583 100 113 C96.61968411 111.81232145 96.06783183 111.10174775 94 108 C93.69702148 105.93457031 93.69702148 105.93457031 93.62109375 103.578125 C93.58693359 102.71703125 93.55277344 101.8559375 93.51757812 100.96875 C93.47793945 99.62296875 93.47793945 99.62296875 93.4375 98.25 C93.23740667 92.42600677 92.95116804 86.75417358 92 81 C91.34 81 90.68 81 90 81 C89.0234375 79.20963542 88.046875 77.41927083 87.0703125 75.62890625 C86.08589976 73.83381685 86.08589976 73.83381685 84 73 C84 72.34 84 71.68 84 71 C83.34 71 82.68 71 82 71 C82 70.34 82 69.68 82 69 C81.01 68.62875 81.01 68.62875 80 68.25 C76.23639093 66.68182955 72.6288576 64.85494954 69 63 C69 62.34 69 61.68 69 61 C67.35 60.67 65.7 60.34 64 60 C64 59.34 64 58.68 64 58 C63.431604 57.88591797 62.86320801 57.77183594 62.27758789 57.65429688 C59.74688781 56.92728688 57.82084058 55.87562689 55.55859375 54.53125 C54.72779297 54.04269531 53.89699219 53.55414063 53.04101562 53.05078125 C51.75227539 52.28314453 51.75227539 52.28314453 50.4375 51.5 C48.72933803 50.48709439 47.01976098 49.47657033 45.30859375 48.46875 C44.55376709 48.01951172 43.79894043 47.57027344 43.02124023 47.10742188 C40.90219321 45.86822493 40.90219321 45.86822493 38 45 C38 44.34 38 43.68 38 43 C36.35 42.67 34.7 42.34 33 42 C33 41.34 33 40.68 33 40 C32.30390625 39.91234375 31.6078125 39.8246875 30.890625 39.734375 C27.32868883 38.82945068 24.83960843 37.23511073 21.75 35.25 C18.04913273 32.90320987 14.35657457 30.58540699 10.5 28.5 C6.80260176 26.49245471 3.25114368 24.29876038 -0.3125 22.0625 C-16.9535197 11.70578433 -16.9535197 11.70578433 -36 10 C-41.34094908 11.75209183 -46.3190214 13.8793476 -51 17 C-51.99 17 -52.98 17 -54 17 C-54 17.66 -54 18.32 -54 19 C-54.76183594 19.36351563 -55.52367187 19.72703125 -56.30859375 20.1015625 C-62.14254021 22.94206078 -67.62426075 25.92621431 -72.96484375 29.609375 C-80.85393258 35 -80.85393258 35 -85 35 C-85 35.66 -85 36.32 -85 37 C-86.65 37.33 -88.3 37.66 -90 38 C-90 38.66 -90 39.32 -90 40 C-90.71542969 40.3403125 -91.43085938 40.680625 -92.16796875 41.03125 C-99.07925844 44.39301575 -105.54956616 48.09971947 -111.9921875 52.265625 C-114.94975551 53.97102785 -117.73186366 55.04394817 -121 56 C-121 56.66 -121 57.32 -121 58 C-121.75023437 58.35191406 -122.50046875 58.70382813 -123.2734375 59.06640625 C-136.20238847 65.30291535 -147.7342578 72.02553031 -153 86 C-153.88507681 91.04680372 -154.14657217 95.97731072 -154.14044189 101.08805847 C-154.14341302 101.87369826 -154.14638414 102.65933805 -154.1494453 103.46878511 C-154.15807693 106.08621603 -154.15963583 108.70360092 -154.16113281 111.32104492 C-154.16576491 113.20406185 -154.17079009 115.08707785 -154.17617798 116.97009277 C-154.18926619 122.07569271 -154.19573993 127.18127952 -154.20018864 132.28689361 C-154.20312512 135.48059943 -154.20723101 138.67430172 -154.21169281 141.86800575 C-154.22535825 151.87183082 -154.2350296 161.87564774 -154.2388947 171.87948149 C-154.24337337 183.40621626 -154.26091649 194.93283232 -154.2898953 206.45953101 C-154.31154847 215.3837798 -154.32160092 224.30799529 -154.32293582 233.23227006 C-154.32398123 238.55568756 -154.32983278 243.87899333 -154.34775543 249.20238304 C-154.36429907 254.21340876 -154.36636118 259.22423951 -154.35761642 264.2352829 C-154.35684942 266.06695645 -154.36114406 267.89864076 -154.37107468 269.73028755 C-154.43703955 282.66302776 -154.45512883 294.48821822 -146 305 C-146 305.66 -146 306.32 -146 307 C-145.48695313 307.24621094 -144.97390625 307.49242187 -144.4453125 307.74609375 C-141.19460318 309.41299102 -138.0393249 311.23893544 -134.875 313.0625 C-130.48479988 315.61822698 -130.48479988 315.61822698 -126 318 C-126 318.66 -126 319.32 -126 320 C-125.26652344 320.11214844 -124.53304687 320.22429687 -123.77734375 320.33984375 C-120.88584096 321.02713485 -119.05873363 321.97477428 -116.5625 323.5625 C-112.35879447 326.17408353 -108.11492438 328.6813148 -103.8125 331.125 C-102.68457031 331.76695312 -101.55664062 332.40890625 -100.39453125 333.0703125 C-99.27433594 333.70710938 -98.15414062 334.34390625 -97 335 C-94.6660285 336.33222013 -92.33297048 337.66602704 -90 339 C-90 339.66 -90 340.32 -90 341 C-89.26064209 341.11915771 -88.52128418 341.23831543 -87.75952148 341.36108398 C-85.04398576 341.98981591 -83.22819904 342.80740398 -80.84765625 344.22265625 C-80.0779248 344.67495605 -79.30819336 345.12725586 -78.51513672 345.59326172 C-77.7057666 346.07811035 -76.89639648 346.56295898 -76.0625 347.0625 C-74.35826858 348.06673838 -72.65383992 349.07064209 -70.94921875 350.07421875 C-69.69117432 350.81937744 -69.69117432 350.81937744 -68.40771484 351.57958984 C-65.08089544 353.54221763 -61.73170058 355.46405352 -58.375 357.375 C-57.27027344 358.0040625 -56.16554688 358.633125 -55.02734375 359.28125 C-54.02832031 359.8484375 -53.02929688 360.415625 -52 361 C-50.67162109 361.75796875 -50.67162109 361.75796875 -49.31640625 362.53125 C-48.53136719 362.9746875 -47.74632812 363.418125 -46.9375 363.875 C-46.28652344 364.24367188 -45.63554687 364.61234375 -44.96484375 364.9921875 C-37.35542265 368.89523053 -28.80473926 369.21970748 -20.453125 367.46484375 C-16.2138702 365.96138711 -12.70205982 363.49673802 -9 361 C-8.01 361 -7.02 361 -6 361 C-6 360.34 -6 359.68 -6 359 C-4.35 358.67 -2.7 358.34 -1 358 C-1 357.34 -1 356.68 -1 356 C-0.16855469 355.59007812 0.66289062 355.18015625 1.51953125 354.7578125 C3.14955078 353.94957031 3.14955078 353.94957031 4.8125 353.125 C5.89144531 352.59132813 6.97039062 352.05765625 8.08203125 351.5078125 C11.07838265 350.02778861 11.07838265 350.02778861 14 348 C14.99 348 15.98 348 17 348 C17 347.34 17 346.68 17 346 C17.49290527 345.72849121 17.98581055 345.45698242 18.49365234 345.17724609 C20.78849283 343.91173662 23.08193954 342.64373201 25.375 341.375 C26.19685791 340.9207666 27.01871582 340.4665332 27.86547852 339.99853516 C33.05017412 337.12047917 38.15271098 334.1529429 43.15234375 330.9609375 C45 330 45 330 48 330 C48 329.34 48 328.68 48 328 C48.98226562 327.47212891 48.98226562 327.47212891 49.984375 326.93359375 C56.15566014 323.59517255 62.24931216 320.14918561 68.2890625 316.578125 C70.37974831 315.3610687 72.477779 314.23389348 74.625 313.125 C83.26658819 307.68400003 90.44533757 301.13508599 93 291 C93.34115071 286.75933245 93.36584596 282.50856157 93.390625 278.25585938 C93.50206499 274.12948431 93.67862819 271.5736705 95.7265625 267.91796875 C98.37403381 265.68444914 99.57190237 265.32274241 103 265.375 C103.845625 265.36210937 104.69125 265.34921875 105.5625 265.3359375 C108 266 108 266 110.2890625 267.8984375 C112.75252606 272.36416824 112.50862145 276.2356794 112.375 281.25 C112.37306641 282.60544922 112.37306641 282.60544922 112.37109375 283.98828125 C112.26099349 292.49046782 110.98104982 299.79110008 107 307.375 C106.2265625 308.87160156 106.2265625 308.87160156 105.4375 310.3984375 C104 313 104 313 102 316 C101.34 316 100.68 316 100 316 C99.64615234 316.86818359 99.64615234 316.86818359 99.28515625 317.75390625 C97.71000536 320.50682953 95.92331848 321.97296427 93.4375 323.9375 C92.63183594 324.58589844 91.82617188 325.23429687 90.99609375 325.90234375 C87.90354476 328.06753124 84.74617845 329.86449015 81.43286133 331.66381836 C78.94903133 333.02799313 76.50826982 334.4501275 74.0703125 335.89453125 C73.255625 336.37470703 72.4409375 336.85488281 71.6015625 337.34960938 C69.92458775 338.34018831 68.2501745 339.33511431 66.578125 340.33398438 C65.77117187 340.80771484 64.96421875 341.28144531 64.1328125 341.76953125 C63.40980957 342.19854736 62.68680664 342.62756348 61.94189453 343.06958008 C60 344 60 344 57 344 C57 344.66 57 345.32 57 346 C56.19731689 346.44025513 56.19731689 346.44025513 55.37841797 346.8894043 C51.24259465 349.17076052 47.13646085 351.49092466 43.0703125 353.89453125 C42.255625 354.37470703 41.4409375 354.85488281 40.6015625 355.34960938 C38.92458775 356.34018831 37.2501745 357.33511431 35.578125 358.33398438 C34.77117187 358.80771484 33.96421875 359.28144531 33.1328125 359.76953125 C32.40980957 360.19854736 31.68680664 360.62756348 30.94189453 361.06958008 C29 362 29 362 26 362 C26 362.66 26 363.32 26 364 C25.50709473 364.27150879 25.01418945 364.54301758 24.50634766 364.82275391 C13.40719615 370.900816 13.40719615 370.900816 2.5 377.3125 C-11.14755693 385.58516293 -24.95535742 390.8252216 -41.10449219 387.57666016 C-47.72590225 385.87306277 -54.05134871 383.45378759 -59.68359375 379.53515625 C-63.17589754 377.22069522 -66.84191449 375.22652409 -70.5 373.1875 C-71.23210693 372.77790039 -71.96421387 372.36830078 -72.71850586 371.94628906 C-74.47805386 370.9624916 -76.23889344 369.98100475 -78 369 C-78 368.34 -78 367.68 -78 367 C-78.72574219 366.89300781 -79.45148438 366.78601563 -80.19921875 366.67578125 C-83.22167309 365.94651402 -85.20011822 364.85452876 -87.8125 363.1875 C-92.10905266 360.5142326 -96.44207432 358.19455681 -101 356 C-101 355.34 -101 354.68 -101 354 C-101.55816406 353.88785156 -102.11632812 353.77570313 -102.69140625 353.66015625 C-111.09658692 351.25664435 -118.88788516 345.282284 -126.25 340.63671875 C-128.94690285 338.89911287 -128.94690285 338.89911287 -132 338 C-132 337.34 -132 336.68 -132 336 C-132.72960937 335.88785156 -133.45921875 335.77570313 -134.2109375 335.66015625 C-143.34393644 333.49842401 -154.94923496 325.08918016 -161 318 C-161 317.34 -161 316.68 -161 316 C-161.66 316 -162.32 316 -163 316 C-163 315.01 -163 314.02 -163 313 C-163.66 313 -164.32 313 -165 313 C-165.96608323 311.14985947 -166.9224907 309.29466527 -167.875 307.4375 C-168.67550781 305.88869141 -168.67550781 305.88869141 -169.4921875 304.30859375 C-172.41717579 297.89029044 -173.29406497 292.23081902 -173.26069641 285.2910614 C-173.26452196 284.43867364 -173.26834751 283.58628588 -173.27228898 282.70806819 C-173.28257025 279.86480417 -173.27863609 277.02174393 -173.2746582 274.1784668 C-173.27900741 272.13457045 -173.28419126 270.09067574 -173.29014587 268.04678345 C-173.30352566 262.50329648 -173.30411559 256.95987774 -173.30158257 251.41637778 C-173.30051202 246.78431171 -173.30539849 242.15225939 -173.310188 237.52019626 C-173.32127999 226.5890559 -173.32172253 215.6579499 -173.31567383 204.72680664 C-173.3096356 193.46092839 -173.32194199 182.19517507 -173.3432439 170.92931813 C-173.36087544 161.24756408 -173.36685874 151.56584974 -173.36360615 141.88408023 C-173.36179539 136.1057828 -173.36440875 130.32757447 -173.37832069 124.54929161 C-173.39091936 119.11310362 -173.38893554 113.67710993 -173.37590981 108.24092484 C-173.3735488 106.25038525 -173.37626157 104.2598319 -173.38453293 102.26930809 C-173.45303529 84.49676667 -170.9236967 72.24734716 -158.76953125 58.65234375 C-157 57 -157 57 -155 57 C-155 56.34 -155 55.68 -155 55 C-153.15582272 53.714207 -151.24531433 52.52325182 -149.3125 51.375 C-148.11572173 50.65782517 -146.91911187 49.94036924 -145.72265625 49.22265625 C-145.10535645 48.85543457 -144.48805664 48.48821289 -143.85205078 48.10986328 C-140.96304849 46.37859457 -138.10967871 44.59178061 -135.25 42.8125 C-120.89275148 34 -120.89275148 34 -117 34 C-117 33.34 -117 32.68 -117 32 C-116.50709473 31.72849121 -116.01418945 31.45698242 -115.50634766 31.17724609 C-103.37123428 24.49661671 -103.37123428 24.49661671 -91.44458008 17.45385742 C-88.98945477 15.99372847 -86.50090903 14.62859665 -83.984375 13.27734375 C-76.72949207 9.3381998 -69.63337066 5.13718012 -62.52148438 0.94726562 C-61.50763672 0.35236328 -60.49378906 -0.24253906 -59.44921875 -0.85546875 C-58.54518311 -1.38809326 -57.64114746 -1.92071777 -56.7097168 -2.46948242 C-37.88806816 -13.10043253 -18.06124948 -10.7336706 0 0 Z " fill="#EEEEEE" transform="translate(340,43)"/>
<path d="M0 0 C1.12535156 -0.07734375 1.12535156 -0.07734375 2.2734375 -0.15625 C5.15869389 0.64893783 6.70372799 1.9707677 8.55470085 4.30376053 C11.02779252 9.3785114 10.28241559 15.38793929 10.22094727 20.91552734 C10.22285244 22.39110249 10.22701062 23.86667618 10.23324585 25.34223938 C10.24202302 28.51317121 10.23530819 31.68355505 10.21658516 34.8544426 C10.18744143 39.87280027 10.19530035 44.89068808 10.20848083 49.90908813 C10.22913112 59.65899306 10.21355683 69.40866977 10.19300842 79.15856171 C10.16785755 91.56152838 10.15505199 103.96436695 10.18296474 116.36733782 C10.19289577 121.3512809 10.18284321 126.33465751 10.15705693 131.31853843 C10.14484717 134.42517573 10.14910709 137.53163799 10.15763474 140.63828087 C10.1581678 142.07334143 10.15188552 143.50842412 10.13809395 144.9434185 C10.0647152 152.97143975 10.38859006 158.60457133 14.625 165.5 C14.625 166.16 14.625 166.82 14.625 167.5 C15.285 167.5 15.945 167.5 16.625 167.5 C19.25 169.875 19.25 169.875 21.625 172.5 C21.625 173.16 21.625 173.82 21.625 174.5 C22.8625 174.8403125 22.8625 174.8403125 24.125 175.1875 C27.56980588 176.47930221 30.23763863 178.03312193 33.3046875 180.015625 C52.10999599 192.89755172 52.10999599 192.89755172 73.78125 195.96484375 C80.91134972 194.00406633 86.94847962 190.85660013 93.1640625 186.890625 C95.625 185.5 95.625 185.5 98.625 185.5 C98.625 184.84 98.625 184.18 98.625 183.5 C99.23085938 183.20867187 99.83671875 182.91734375 100.4609375 182.6171875 C106.01029178 179.90227264 111.28530531 176.95723723 116.49609375 173.63671875 C118.625 172.5 118.625 172.5 121.625 172.5 C121.625 171.84 121.625 171.18 121.625 170.5 C135.79023605 162.03540773 135.79023605 162.03540773 142.625 163.5 C145.625 165.5625 145.625 165.5625 147.625 168.5 C148.41182759 172.82755173 148.151183 174.71657198 145.69140625 178.37890625 C142.16419628 182.40632731 137.6348733 184.57342157 132.9375 187 C131.13990856 187.9569888 129.34302463 188.91530784 127.546875 189.875 C126.69287109 190.32746094 125.83886719 190.77992188 124.95898438 191.24609375 C119.85717925 193.98697985 114.92338613 197.01671885 110.05859375 200.15625 C107.625 201.5 107.625 201.5 104.625 201.5 C104.625 202.16 104.625 202.82 104.625 203.5 C102.4387775 204.60675619 100.25109052 205.71044378 98.0625 206.8125 C97.45341797 207.12123047 96.84433594 207.42996094 96.21679688 207.74804688 C82.49484532 214.64532411 69.05987056 216.85829825 53.7421875 213.69921875 C45.73514351 210.77935684 38.4972335 206.03398662 31.29638672 201.53076172 C26.54650356 198.60145896 21.62546097 195.97251174 16.625 193.5 C16.625 192.84 16.625 192.18 16.625 191.5 C16.08875 191.4175 15.5525 191.335 15 191.25 C10.63215344 189.87068003 6.53666743 187.05870464 3.625 183.5 C3.625 182.84 3.625 182.18 3.625 181.5 C2.635 181.17 1.645 180.84 0.625 180.5 C-1.09375 177.9453125 -1.09375 177.9453125 -2.875 174.625 C-3.75671875 173.02011719 -3.75671875 173.02011719 -4.65625 171.3828125 C-9.24121558 161.68607808 -9.80914917 152.12768724 -9.74731445 141.54516602 C-9.74974773 140.07221724 -9.75347222 138.59927013 -9.75837708 137.12632751 C-9.76771065 133.15980482 -9.75842786 129.1935321 -9.74504495 125.22702909 C-9.73366208 121.06492187 -9.73784283 116.90282572 -9.73979187 112.7407074 C-9.74067201 105.76142324 -9.72964759 98.78223675 -9.71118164 91.80297852 C-9.68996018 83.73609182 -9.68651812 75.66934748 -9.6927436 67.60243851 C-9.69843588 59.82776866 -9.69279695 52.05314888 -9.68157005 44.27848625 C-9.67692818 40.974345 -9.67604835 37.6702344 -9.6781559 34.36609077 C-9.68003838 30.48114112 -9.67193816 26.59633662 -9.6560955 22.71142006 C-9.65185199 21.28598379 -9.65100256 19.86053279 -9.65378571 18.43509293 C-9.65700668 16.49058119 -9.64670226 14.54606102 -9.63569641 12.60157776 C-9.63364354 11.51340035 -9.63159067 10.42522295 -9.62947559 9.30407047 C-9.37134884 6.45976777 -8.95788161 4.85653899 -7.375 2.5 C-4.37817868 0.50211912 -3.43414854 0.14064772 0 0 Z " fill="#EBEBEB" transform="translate(240.375,141.5)"/>
<path d="M0 0 C0.66 0 1.32 0 2 0 C2.07476562 0.84820312 2.14953125 1.69640625 2.2265625 2.5703125 C3.1648195 10.94103671 5.1127939 17.45863538 8.66015625 25.0390625 C10 28 10 28 10.49609375 30.3359375 C10.74552734 31.15964844 10.74552734 31.15964844 11 32 C12.485 32.495 12.485 32.495 14 33 C14.309375 33.804375 14.61875 34.60875 14.9375 35.4375 C16.20796865 38.50157145 17.09347216 38.68737452 20 40 C20.33 40.99 20.66 41.98 21 43 C22.64455275 43.71949183 24.31923769 44.36971413 26 45 C27.33941833 45.78132736 28.67205523 46.57432742 30 47.375 C37.14788999 51.4016447 45.07986008 53.87043294 53.25 54.625 C55.10625 54.810625 55.10625 54.810625 57 55 C57.33 55.66 57.66 56.32 58 57 C56.98421875 57.15855469 55.9684375 57.31710938 54.921875 57.48046875 C40.71846885 59.83269138 26.31836133 63.73376685 17.2265625 75.64453125 C16.61941406 76.31548828 16.61941406 76.31548828 16 77 C15.34 77 14.68 77 14 77 C8.04811574 88.78985687 3.06920278 99.74188557 2 113 C1.01 112.505 1.01 112.505 0 112 C-0.4921875 109.69921875 -0.4921875 109.69921875 -0.875 106.6875 C-3.13478863 92.31320539 -8.37137938 80.18804592 -20 71 C-20 70.34 -20 69.68 -20 69 C-20.639375 68.773125 -21.27875 68.54625 -21.9375 68.3125 C-24.53357002 67.19989856 -26.8165513 65.97739487 -29.25 64.5625 C-37.80320828 59.77945589 -46.33659277 58.26953573 -56 57 C-55.67 56.34 -55.34 55.68 -55 55 C-52.96899299 54.67455674 -50.92289585 54.44241974 -48.875 54.25 C-33.26888386 52.18401721 -20.97965917 45.60330219 -11.125 33.125 C-7.45909279 27.99143682 -4.84131102 23.02517884 -3 17 C-2.78859375 16.31292969 -2.5771875 15.62585938 -2.359375 14.91796875 C-1.0052847 10.01422743 -0.44494966 5.05837514 0 0 Z M1 41 C-0.57405894 43.2716011 -2.04273284 45.60271814 -3.52734375 47.93359375 C-5 50 -5 50 -7 51 C-7 51.66 -7 52.32 -7 53 C-7.78375 53.28875 -8.5675 53.5775 -9.375 53.875 C-12.09671632 54.84912254 -12.09671632 54.84912254 -14 57 C-13.40832031 57.3403125 -12.81664062 57.680625 -12.20703125 58.03125 C-6.43831136 61.56964915 -3.05289398 64.95557675 0 71 C3.29136173 70.28917058 3.29136173 70.28917058 4.5625 67 C5.036875 66.01 5.51125 65.02 6 64 C6.66 63.67 7.32 63.34 8 63 C8 62.34 8 61.68 8 61 C10.66666667 59.66666667 13.33333333 58.33333333 16 57 C13.79214155 54.71624641 11.45020991 52.70613884 9 50.6875 C5.64203365 47.78631583 3.63805776 45.19752301 2 41 C1.67 41 1.34 41 1 41 Z " fill="#C3A472" transform="translate(442,176)"/>
<path d="M0 0 C9.99253731 5.38059701 9.99253731 5.38059701 12.25 11.25 C12.4975 12.1575 12.745 13.065 13 14 C13.66 14 14.32 14 15 14 C15 14.99 15 15.98 15 17 C13.35 16.34 11.7 15.68 10 15 C7.792191 16.53827847 7.792191 16.53827847 6 19 C6.32326553 22.59679066 6.32326553 22.59679066 7 26 C6.34 26.66 5.68 27.32 5 28 C2.36 24.37 -0.28 20.74 -3 17 C-1.68 16.67 -0.36 16.34 1 16 C1.33 14.02 1.66 12.04 2 10 C1.01 9.34 0.02 8.68 -1 8 C-0.34 7.34 0.32 6.68 1 6 C0.66179847 3.98045559 0.66179847 3.98045559 0 2 C0 1.34 0 0.68 0 0 Z " fill="#BE9F6F" transform="translate(429,233)"/>
<path d="M0 0 C0.66 0.33 1.32 0.66 2 1 C0.84414715 4.91211733 -0.35534962 7.8745041 -3 11 C-2.67 11.66 -2.34 12.32 -2 13 C-3.45599609 12.55527344 -3.45599609 12.55527344 -4.94140625 12.1015625 C-9.22410464 10.87793439 -13.54900793 10.11205608 -17.9375 9.375 C-18.71673828 9.2409375 -19.49597656 9.106875 -20.29882812 8.96875 C-22.19863271 8.6424032 -24.09923637 8.32071377 -26 8 C-25.67 7.34 -25.34 6.68 -25 6 C-22.88807547 5.62520776 -20.7579083 5.35170826 -18.625 5.125 C-12.68920282 4.37847336 -7.61586265 3.01226203 -2.109375 0.70703125 C-1.41328125 0.47371094 -0.7171875 0.24039063 0 0 Z " fill="#AA8D65" transform="translate(412,225)"/>
<path d="M0 0 C0.66 0 1.32 0 2 0 C2.16435547 1.34191406 2.16435547 1.34191406 2.33203125 2.7109375 C3.29632926 10.06468982 4.57546137 16.98500155 7 24 C6.34 24 5.68 24 5 24 C5 23.34 5 22.68 5 22 C4.34 21.67 3.68 21.34 3 21 C2.67 21.33 2.34 21.66 2 22 C1.34 22.66 0.68 23.32 0 24 C-0.66 23.67 -1.32 23.34 -2 23 C-2.33 24.32 -2.66 25.64 -3 27 C-3.66 27 -4.32 27 -5 27 C-4.52441709 22.71975378 -3.69407398 18.76639803 -2.5 14.625 C-1.11097351 9.72614073 -0.4155953 5.07026261 0 0 Z " fill="#B89B70" transform="translate(442,176)"/>
<path d="M0 0 C0.99 1.32 1.98 2.64 3 4 C2.01 4.495 2.01 4.495 1 5 C1.99 5.66 2.98 6.32 4 7 C3.49396008 9.16874252 3.00016187 10.99967627 2 13 C-2 13 -2 13 -3.6875 11.8125 C-5.30130763 9.58390852 -5.63487253 7.7019433 -6 5 C-5.195625 4.54625 -4.39125 4.0925 -3.5625 3.625 C-0.91143428 2.25274335 -0.91143428 2.25274335 0 0 Z " fill="#CCAD77" transform="translate(428,236)"/>
<path d="M0 0 C1.26070313 0.07863281 2.52140625 0.15726563 3.8203125 0.23828125 C4.82835937 0.38652344 5.83640625 0.53476563 6.875 0.6875 C7.205 1.3475 7.535 2.0075 7.875 2.6875 C5.33347565 3.16743156 2.79178778 3.64646727 0.25 4.125 C-0.81927734 4.32706055 -0.81927734 4.32706055 -1.91015625 4.53320312 C-5.97495013 5.29768271 -10.04214075 6.02419637 -14.125 6.6875 C-13.795 5.6975 -13.465 4.7075 -13.125 3.6875 C-11.145 4.1825 -11.145 4.1825 -9.125 4.6875 C-9.455 3.3675 -9.785 2.0475 -10.125 0.6875 C-6.49283753 -0.52322082 -3.81395771 -0.26235643 0 0 Z " fill="#93815F" transform="translate(492.125,230.3125)"/>
<path d="M0 0 C0.33 0.66 0.66 1.32 1 2 C1.99 2.33 2.98 2.66 4 3 C3.690625 3.53625 3.38125 4.0725 3.0625 4.625 C1.82172561 7.3984957 1.4090325 10.00042837 1 13 C-0.4835001 12.57742724 -1.96176424 12.13643678 -3.4375 11.6875 C-4.26121094 11.44386719 -5.08492188 11.20023438 -5.93359375 10.94921875 C-6.61550781 10.63597656 -7.29742187 10.32273438 -8 10 C-8.33 9.01 -8.66 8.02 -9 7 C-7.68 7 -6.36 7 -5 7 C-2.26533528 4.73413495 -1.1328469 3.3985407 0 0 Z " fill="#CDAE78" transform="translate(461,218)"/>
<path d="M0 0 C2.64 0.66 5.28 1.32 8 2 C7.67 2.66 7.34 3.32 7 4 C6.67 4.99 6.34 5.98 6 7 C4.68 7 3.36 7 2 7 C1.67 7.66 1.34 8.32 1 9 C-0.65 8.67 -2.3 8.34 -4 8 C-3.34 6.02 -2.68 4.04 -2 2 C-1.34 2 -0.68 2 0 2 C0 1.34 0 0.68 0 0 Z " fill="#CDAD7B" transform="translate(477,228)"/>
<path d="M0 0 C0.66 1.65 1.32 3.3 2 5 C-3.61 4.34 -9.22 3.68 -15 3 C-14.67 2.34 -14.34 1.68 -14 1 C-12.109375 0.5859375 -12.109375 0.5859375 -9.75 0.375 C-8.94175781 0.30152344 -8.13351562 0.22804687 -7.30078125 0.15234375 C-4.86004606 -0.0092669 -2.445326 -0.07888148 0 0 Z " fill="#917B60" transform="translate(401,230)"/>
<path d="M0 0 C0.66 0 1.32 0 2 0 C2.66 5.28 3.32 10.56 4 16 C2.68 15.34 1.36 14.68 0 14 C0 14.99 0 15.98 0 17 C-0.66 17 -1.32 17 -2 17 C-1.855625 15.865625 -1.71125 14.73125 -1.5625 13.5625 C-0.99698633 9.04646944 -0.49225191 4.52452819 0 0 Z " fill="#8C745A" transform="translate(442,176)"/>
<path d="M0 0 C0.33 0.66 0.66 1.32 1 2 C1.66 2 2.32 2 3 2 C2.67 3.98 2.34 5.96 2 8 C1.34 7.67 0.68 7.34 0 7 C-0.61488281 7.97453125 -0.61488281 7.97453125 -1.2421875 8.96875 C-1.78101563 9.8040625 -2.31984375 10.639375 -2.875 11.5 C-3.40867187 12.3353125 -3.94234375 13.170625 -4.4921875 14.03125 C-4.98976563 14.6809375 -5.48734375 15.330625 -6 16 C-6.66 16 -7.32 16 -8 16 C-7.20822838 12.17310382 -5.79541463 9.79541463 -3 7 C-2.3574765 4.93125966 -2.3574765 4.93125966 -2 3 C-1.34 3 -0.68 3 0 3 C0 2.01 0 1.02 0 0 Z " fill="#9A835F" transform="translate(443,211)"/>
<path d="M0 0 C1.32 0 2.64 0 4 0 C3.67 4.29 3.34 8.58 3 13 C2.34 12.67 1.68 12.34 1 12 C0.5859375 9.27734375 0.5859375 9.27734375 0.375 5.9375 C0.30023438 4.83277344 0.22546875 3.72804688 0.1484375 2.58984375 C0.09945313 1.73519531 0.05046875 0.88054687 0 0 Z " fill="#746350" transform="translate(441,276)"/>
<path d="M0 0 C-0.66 1.65 -1.32 3.3 -2 5 C-2.99 5 -3.98 5 -5 5 C-5.66 3.35 -6.32 1.7 -7 0 C-3.98968256 -0.93423645 -3.13349732 -1.04449911 0 0 Z " fill="#CCAD79" transform="translate(408,230)"/>
<path d="M0 0 C1.5 1.375 1.5 1.375 3 3 C3 3.66 3 4.32 3 5 C3.639375 5.268125 4.27875 5.53625 4.9375 5.8125 C7 7 7 7 8 10 C8.66 10.33 9.32 10.66 10 11 C9.01 11 8.02 11 7 11 C6.67 10.34 6.34 9.68 6 9 C5.01 8.67 4.02 8.34 3 8 C2.3125 5.9375 2.3125 5.9375 2 4 C1.34 4 0.68 4 0 4 C0 2.68 0 1.36 0 0 Z " fill="#837252" transform="translate(455,209)"/>
<path d="M0 0 C1.32 0 2.64 0 4 0 C5.75 2.5 5.75 2.5 7 5 C6.01 5.495 6.01 5.495 5 6 C2.96855359 5.06553465 0.96466413 4.06775224 -1 3 C-0.67 2.01 -0.34 1.02 0 0 Z " fill="#A28B62" transform="translate(411,236)"/>
<path d="M0 0 C3.96 1.32 7.92 2.64 12 4 C12 4.33 12 4.66 12 5 C4.71942446 5.16546763 4.71942446 5.16546763 2 4 C1.34 2.68 0.68 1.36 0 0 Z " fill="#978558" transform="translate(473,225)"/>
<path d="M0 0 C0.99 0.33 1.98 0.66 3 1 C1.02 3.31 -0.96 5.62 -3 8 C-3.99 7.67 -4.98 7.34 -6 7 C-4.02 4.69 -2.04 2.38 0 0 Z " fill="#B9B9B9" transform="translate(182,101)"/>
<path d="M0 0 C3 3.75 3 3.75 3 6 C3.66 6 4.32 6 5 6 C5 6.99 5 7.98 5 9 C3.02 8.34 1.04 7.68 -1 7 C-0.67 4.69 -0.34 2.38 0 0 Z " fill="#8B7851" transform="translate(439,241)"/>
<path d="M0 0 C0.66 0.33 1.32 0.66 2 1 C1.3125 3.375 1.3125 3.375 0 6 C-2.625 7.3125 -2.625 7.3125 -5 8 C-4.1875 5.5625 -4.1875 5.5625 -3 3 C-2.01 2.67 -1.02 2.34 0 2 C0 1.34 0 0.68 0 0 Z " fill="#98825D" transform="translate(450,237)"/>
<path d="M0 0 C2.3125 -0.3125 2.3125 -0.3125 5 0 C6.8125 2.5 6.8125 2.5 8 5 C5.07120629 4.37240135 2.63904371 3.41377341 0 2 C0 1.34 0 0.68 0 0 Z " fill="#937D57" transform="translate(453,228)"/>
<path d="M0 0 C0.33 0.99 0.66 1.98 1 3 C-1.45906075 6.87774964 -3.61740632 8.66087415 -8 10 C-7.59007812 9.52949219 -7.18015625 9.05898438 -6.7578125 8.57421875 C-6.21898437 7.95160156 -5.68015625 7.32898438 -5.125 6.6875 C-4.59132813 6.07261719 -4.05765625 5.45773437 -3.5078125 4.82421875 C-1.8359553 2.86501788 -1.8359553 2.86501788 0 0 Z " fill="#979595" transform="translate(429,343)"/>
<path d="M0 0 C1.24546405 2.49092811 0.7767578 3.41080733 0 6 C-0.66 6 -1.32 6 -2 6 C-2.33 6.66 -2.66 7.32 -3 8 C-3.33 6.02 -3.66 4.04 -4 2 C-2.68 1.34 -1.36 0.68 0 0 Z " fill="#C8AC7E" transform="translate(445,270)"/>
<path d="M0 0 C0.66 0.33 1.32 0.66 2 1 C1.01 1.33 0.02 1.66 -1 2 C-1 2.66 -1 3.32 -1 4 C-3.3125 5.6875 -3.3125 5.6875 -6 7 C-6.99 6.67 -7.98 6.34 -9 6 C-6.12050853 3.76039553 -3.23257974 1.70135776 0 0 Z " fill="#989798" transform="translate(265,51)"/>
<path d="M0 0 C6.875 3.75 6.875 3.75 8 6 C6.68 6 5.36 6 4 6 C4 5.34 4 4.68 4 4 C3.01 4 2.02 4 1 4 C0.67 2.68 0.34 1.36 0 0 Z " fill="#8D7753" transform="translate(429,233)"/>
</svg>
